<svg width="24" height="23" viewBox="0 0 24 23" fill="none" xmlns="http://www.w3.org/2000/svg">
<path d="M11.5625 8.05C10.6475 8.05 9.76998 8.41348 9.12298 9.06048C8.47598 9.70748 8.1125 10.585 8.1125 11.5C8.1125 12.415 8.47598 13.2925 9.12298 13.9395C9.76998 14.5865 10.6475 14.95 11.5625 14.95C12.4775 14.95 13.355 14.5865 14.002 13.9395C14.649 13.2925 15.0125 12.415 15.0125 11.5C15.0125 10.585 14.649 9.70748 14.002 9.06048C13.355 8.41348 12.4775 8.05 11.5625 8.05ZM11.5625 5.75C13.0875 5.75 14.55 6.3558 15.6284 7.43414C16.7067 8.51247 17.3125 9.97501 17.3125 11.5C17.3125 13.025 16.7067 14.4875 15.6284 15.5659C14.55 16.6442 13.0875 17.25 11.5625 17.25C10.0375 17.25 8.57497 16.6442 7.49664 15.5659C6.4183 14.4875 5.8125 13.025 5.8125 11.5C5.8125 9.97501 6.4183 8.51247 7.49664 7.43414C8.57497 6.3558 10.0375 5.75 11.5625 5.75ZM19.0375 5.4625C19.0375 5.84375 18.8861 6.20938 18.6165 6.47897C18.3469 6.74855 17.9812 6.9 17.6 6.9C17.2188 6.9 16.8531 6.74855 16.5835 6.47897C16.3139 6.20938 16.1625 5.84375 16.1625 5.4625C16.1625 5.08125 16.3139 4.71562 16.5835 4.44603C16.8531 4.17645 17.2188 4.025 17.6 4.025C17.9812 4.025 18.3469 4.17645 18.6165 4.44603C18.8861 4.71562 19.0375 5.08125 19.0375 5.4625ZM11.5625 2.3C8.7174 2.3 8.2528 2.30805 6.92915 2.3667C6.02755 2.40925 5.42265 2.53 4.86145 2.7485C4.36235 2.9417 4.0024 3.17285 3.61945 3.55695C3.25951 3.90471 2.98276 4.32927 2.80985 4.79895C2.59135 5.36245 2.4706 5.9662 2.4292 6.86665C2.3694 8.13625 2.3625 8.58015 2.3625 11.5C2.3625 14.3451 2.37055 14.8097 2.4292 16.1333C2.47175 17.0338 2.5925 17.6399 2.80985 18.1999C3.00535 18.7001 3.23535 19.0601 3.61715 19.4419C4.0047 19.8283 4.36465 20.0594 4.85915 20.2503C5.42725 20.47 6.03215 20.5919 6.92915 20.6333C8.19875 20.6931 8.64265 20.7 11.5625 20.7C14.4076 20.7 14.8722 20.6919 16.1958 20.6333C17.0951 20.5907 17.7012 20.47 18.2624 20.2526C18.7603 20.0583 19.1226 19.8272 19.5044 19.4454C19.892 19.0578 20.1231 18.6978 20.314 18.2034C20.5325 17.6364 20.6544 17.0303 20.6958 16.1333C20.7556 14.8637 20.7625 14.4198 20.7625 11.5C20.7625 8.6549 20.7544 8.1903 20.6958 6.86665C20.6532 5.96735 20.5325 5.36015 20.314 4.79895C20.1407 4.32975 19.8644 3.90535 19.5055 3.55695C19.1579 3.19682 18.7333 2.92004 18.2635 2.74735C17.7 2.52885 17.0951 2.4081 16.1958 2.3667C14.9262 2.3069 14.4823 2.3 11.5625 2.3ZM11.5625 0C14.687 0 15.0769 0.0114999 16.3028 0.0689999C17.5275 0.1265 18.3613 0.31855 19.095 0.60375C19.854 0.89585 20.4934 1.29145 21.1328 1.9297C21.7176 2.50458 22.17 3.19998 22.4587 3.9675C22.7428 4.70005 22.936 5.53495 22.9935 6.7597C23.0476 7.9856 23.0625 8.37545 23.0625 11.5C23.0625 14.6245 23.051 15.0144 22.9935 16.2403C22.936 17.465 22.7428 18.2988 22.4587 19.0325C22.1709 19.8004 21.7183 20.496 21.1328 21.0703C20.5578 21.6549 19.8624 22.1073 19.095 22.3962C18.3624 22.6803 17.5275 22.8735 16.3028 22.931C15.0769 22.9851 14.687 23 11.5625 23C8.43795 23 8.0481 22.9885 6.8222 22.931C5.59745 22.8735 4.7637 22.6803 4.03 22.3962C3.26217 22.1081 2.56666 21.6556 1.9922 21.0703C1.40732 20.4955 0.954821 19.8001 0.66625 19.0325C0.38105 18.2999 0.189 17.465 0.1315 16.2403C0.0774499 15.0144 0.0625 14.6245 0.0625 11.5C0.0625 8.37545 0.0739999 7.9856 0.1315 6.7597C0.189 5.5338 0.38105 4.7012 0.66625 3.9675C0.954022 3.19951 1.40662 2.50392 1.9922 1.9297C2.56682 1.34462 3.26229 0.892089 4.03 0.60375C4.7637 0.31855 5.5963 0.1265 6.8222 0.0689999C8.0481 0.0149499 8.43795 0 11.5625 0Z" fill="#0055FF"/>
</svg>
