<svg width="23" height="22" viewBox="0 0 23 22" fill="none" xmlns="http://www.w3.org/2000/svg">
<path d="M4.82686 2.3969C4.82654 3.03228 4.57196 3.64151 4.11913 4.09056C3.6663 4.53962 3.05231 4.79172 2.41223 4.7914C1.77214 4.79108 1.1584 4.53837 0.706025 4.08887C0.253645 3.63936 -0.000319739 3.02988 3.02115e-07 2.3945C0.000320343 1.75912 0.254899 1.14989 0.707731 0.700837C1.16056 0.251781 1.77456 -0.00031739 2.41464 2.99896e-07C3.05472 0.000317989 3.66846 0.253026 4.12084 0.702532C4.57322 1.15204 4.82718 1.76152 4.82686 2.3969ZM4.89927 6.56542H0.0724032V21.5625H4.89927V6.56542ZM12.5257 6.56542H7.72298V21.5625H12.4774V13.6926C12.4774 9.30849 18.2335 8.90123 18.2335 13.6926V21.5625H23V12.0635C23 4.67281 14.4806 4.94832 12.4774 8.5778L12.5257 6.56542Z" fill="#0055FF"/>
</svg>
