<svg width="72" height="40" viewBox="0 0 72 40" fill="none" xmlns="http://www.w3.org/2000/svg">
<path d="M72 3.2183C70.0928 5.52293 67.9868 8.18522 65.6822 11.2052C63.3776 14.2251 61.0928 17.3443 58.8278 20.5627C56.563 23.7813 54.4372 27.0001 52.4505 30.2192C50.6567 33.0855 49.0249 36.0502 47.5629 39.0992L24.4371 39.0992C22.9752 36.0502 21.3435 33.0855 19.5497 30.2192C17.563 27.0001 15.4373 23.7813 13.1726 20.5627C10.908 17.3442 8.62318 14.225 6.31824 11.2052C4.01362 8.18537 1.90769 5.52308 0.000457764 3.2183V0.000236511H9.53653C14.5259 2.91682 19.2347 6.28883 23.6028 10.0731C27.9868 13.7971 32.1651 17.7566 36.1193 21.9341C39.8545 18.04 44.0267 14.0864 48.6359 10.0731C52.9228 6.29395 57.5519 2.92179 62.4635 0.000236511H72V3.2183Z" fill="#333333"/>
<path d="M0 35.8809C1.90723 33.5763 4.01316 30.914 6.31779 27.894C8.62242 24.8741 10.9072 21.7549 13.1722 18.5364C15.437 15.3179 17.5628 12.0991 19.5495 8.88002C21.3433 6.01367 22.9751 3.04901 24.4371 0L47.5629 0C49.0248 3.04901 50.6565 6.01367 52.4503 8.88002C54.437 12.0991 56.5627 15.3179 58.8274 18.5364C61.092 21.755 63.3768 24.8742 65.6818 27.894C67.9864 30.9138 70.0923 33.5761 71.9995 35.8809V39.0989H62.4635C57.4741 36.1824 52.7653 32.8104 48.3972 29.026C44.0132 25.3021 39.8349 21.3426 35.8807 17.1651C32.1455 21.0592 27.9733 25.0128 23.3641 29.026C19.0772 32.8052 14.4481 36.1774 9.53652 39.0989H0V35.8809Z" fill="#0055FF"/>
<path d="M45.6009 9.13525C46.5789 9.13292 47.5521 9.27184 48.4903 9.54771C49.4313 9.82727 50.3108 10.2827 51.0821 10.8898C51.924 11.5608 52.6486 12.3668 53.2265 13.2751C53.9214 14.3808 54.4508 15.5822 54.7981 16.8412H52.8254C52.3362 15.2969 51.7397 14.1654 51.036 13.4466C50.7275 13.1086 50.3522 12.8382 49.9338 12.6527C49.5154 12.4671 49.063 12.3704 48.6053 12.3687C48.3274 12.3594 48.0552 12.4488 47.837 12.6211C47.6188 12.8028 47.4328 13.0199 47.2865 13.2632C47.1259 13.5231 46.9693 13.7983 46.8168 14.0888C46.662 14.3821 46.4775 14.6588 46.2663 14.9144C46.0473 15.1784 45.7784 15.3966 45.4749 15.5566C45.108 15.7368 44.7022 15.8235 44.2937 15.8089C43.3915 15.8089 42.7034 15.5146 42.2294 14.9258C41.7435 14.3017 41.4919 13.527 41.5183 12.7365C41.5149 12.2649 41.6045 11.7973 41.782 11.3604C41.9605 10.9282 42.2264 10.5375 42.5629 10.2127C42.9306 9.86155 43.3682 9.59189 43.8472 9.42133C44.41 9.22198 45.0039 9.12509 45.6009 9.13525ZM25.3486 15.2817C24.8306 15.2965 24.3141 15.2189 23.8233 15.0524C23.453 14.9223 23.1189 14.7062 22.8485 14.4217C22.6033 14.1529 22.4228 13.8316 22.3211 13.4822C22.2117 13.106 22.1576 12.7158 22.1605 12.324C22.1586 11.9398 22.2127 11.5573 22.3211 11.1886C22.4228 10.8393 22.6033 10.5179 22.8485 10.2492C23.1202 9.96354 23.4537 9.74388 23.8233 9.60699C24.3123 9.43245 24.8296 9.35075 25.3486 9.36609C25.8635 9.35201 26.3767 9.43299 26.8622 9.60497C27.2386 9.74181 27.5795 9.96125 27.8598 10.2472C28.1113 10.5132 28.2961 10.8352 28.3989 11.1866C28.5077 11.5555 28.5622 11.9383 28.5606 12.3229C28.5635 12.7147 28.5094 13.1049 28.4 13.4811C28.2972 13.8325 28.1124 14.1545 27.861 14.4205C27.5818 14.7053 27.2403 14.9213 26.8633 15.0513C26.3759 15.2165 25.8631 15.2945 25.3486 15.2817Z" fill="white"/>
</svg>
