<svg width="17" height="31" viewBox="0 0 17 31" fill="none" xmlns="http://www.w3.org/2000/svg">
<path d="M15.402 30.9058C14.4123 30.0869 13.2694 29.1829 11.9735 28.1938C10.6776 27.2047 9.33853 26.224 7.95643 25.2517C6.5749 24.2795 5.19338 23.3669 3.81185 22.514C2.58139 21.7447 1.30878 21.045 0 20.4181L0 10.4894C1.30878 9.86256 2.58139 9.16284 3.81185 8.39355C5.19338 7.54065 6.5749 6.62807 7.95643 5.65582C9.33795 4.68358 10.677 3.70289 11.9735 2.71375C13.2697 1.72404 14.4126 0.820055 15.402 0.00179482H16.7835L16.7835 4.09353C15.5319 6.23516 14.0848 8.25638 12.4608 10.1314C10.8623 12.0125 9.16269 13.8054 7.36958 15.502C9.04103 17.1054 10.7381 18.8956 12.4608 20.8727C14.0826 22.7129 15.5298 24.7 16.7835 26.8083V30.9058H15.402Z" fill="#0055FF"/>
</svg>
