<?xml version="1.0" standalone="no"?>
<!DOCTYPE svg PUBLIC "-//W3C//DTD SVG 20010904//EN"
 "http://www.w3.org/TR/2001/REC-SVG-20010904/DTD/svg10.dtd">
<svg version="1.0" xmlns="http://www.w3.org/2000/svg"
 width="700.000000pt" height="700.000000pt" viewBox="0 0 700.000000 700.000000"
 preserveAspectRatio="xMidYMid meet">
<metadata>
Created by potrace 1.14, written by Peter Selinger 2001-2017
</metadata>
<g transform="translate(0.000000,700.000000) scale(0.100000,-0.100000)"
fill="#000000" stroke="none">
<path d="M1619 6918 c-4 -211 1 -890 7 -900 44 -76 191 -308 206 -324 10 -11
18 -23 18 -27 0 -18 396 -567 430 -597 14 -12 62 -81 59 -84 -7 -5 -170 -100
-229 -133 -159 -88 -227 -124 -352 -187 -132 -66 -138 -70 -139 -100 0 -41 0
-2156 0 -2178 1 -13 45 -40 149 -92 214 -107 562 -300 562 -312 0 -5 -92 -127
-101 -134 -13 -10 -223 -306 -308 -433 -140 -211 -261 -402 -261 -412 0 -3 -9
-18 -21 -34 -20 -27 -21 -38 -21 -485 0 -251 2 -459 5 -462 2 -3 72 -5 155 -6
l150 0 159 129 c217 177 734 579 893 693 27 19 151 109 275 200 124 91 232
166 241 168 13 3 253 -165 490 -342 218 -164 427 -322 437 -331 7 -6 41 -33
77 -60 64 -48 398 -314 513 -408 l58 -47 154 0 c154 0 155 0 156 23 0 12 1
219 1 459 l1 437 -83 133 c-168 269 -392 589 -589 838 l-51 65 22 19 c13 10
43 29 68 42 25 13 52 29 60 34 43 28 284 157 418 224 107 53 152 81 153 94 0
9 1 510 1 1112 l1 1095 -124 63 c-269 136 -589 315 -589 327 0 3 31 45 68 93
130 167 383 527 469 667 7 11 49 80 94 153 l81 133 1 457 0 457 -155 3 -155 2
-118 -96 c-152 -125 -343 -275 -575 -452 -102 -78 -189 -145 -195 -150 -39
-32 -428 -318 -525 -387 -15 -11 -58 -41 -94 -67 l-67 -48 -237 172 c-130 95
-276 202 -324 238 -48 36 -99 74 -114 85 -15 11 -69 52 -118 90 -50 39 -126
97 -169 129 -42 32 -197 155 -344 272 l-267 214 -153 0 -153 0 -1 -32z m1989
-3540 l-123 -116 -107 105 -106 106 121 117 121 117 108 -106 109 -106 -123
-117z"/>
</g>
</svg>
