<?xml version="1.0" standalone="no"?>
<!DOCTYPE svg PUBLIC "-//W3C//DTD SVG 20010904//EN"
 "http://www.w3.org/TR/2001/REC-SVG-20010904/DTD/svg10.dtd">
<svg version="1.0" xmlns="http://www.w3.org/2000/svg"
 width="1776.000000pt" height="1776.000000pt" viewBox="0 0 1776.000000 1776.000000"
 preserveAspectRatio="xMidYMid meet">
<metadata>
Created by potrace 1.14, written by Peter Selinger 2001-2017
</metadata>
<g transform="translate(0.000000,1776.000000) scale(0.100000,-0.100000)"
fill="#000000" stroke="none">
<path d="M4123 17630 c-18 -5 -18 -51 -18 -1170 l0 -1166 23 -28 c12 -16 22
-35 22 -42 0 -8 5 -14 10 -14 6 0 10 -7 10 -15 0 -8 5 -15 10 -15 6 0 10 -5
10 -11 0 -6 14 -31 30 -56 17 -24 30 -46 30 -48 0 -3 15 -28 34 -57 71 -112
89 -143 89 -148 0 -3 10 -17 23 -32 12 -16 25 -37 29 -48 3 -11 11 -20 16 -20
5 0 9 -4 9 -10 0 -11 129 -213 142 -221 6 -3 10 -10 10 -15 0 -5 21 -40 47
-78 77 -115 80 -120 92 -143 7 -13 16 -23 21 -23 5 0 6 -4 3 -10 -3 -5 -2 -10
3 -10 5 0 15 -12 23 -27 8 -16 17 -30 20 -33 6 -5 141 -201 164 -238 6 -9 16
-22 23 -30 6 -7 17 -23 23 -34 6 -11 17 -27 24 -36 26 -32 175 -243 175 -248
0 -2 9 -15 20 -27 11 -12 76 -98 145 -192 69 -93 134 -181 145 -193 11 -13 20
-26 20 -29 0 -2 6 -10 13 -17 6 -7 21 -25 32 -40 11 -16 25 -33 30 -40 6 -6
23 -29 39 -51 17 -22 32 -42 35 -45 4 -3 25 -30 48 -60 23 -30 54 -68 68 -84
14 -16 25 -32 25 -35 0 -3 12 -19 28 -36 34 -36 72 -87 72 -95 0 -9 -100 -73
-119 -76 -8 -2 -18 -9 -22 -16 -5 -7 -9 -8 -9 -3 0 6 -3 6 -8 -1 -6 -9 -174
-109 -257 -153 -16 -9 -32 -19 -35 -22 -3 -3 -41 -25 -85 -49 -148 -80 -190
-103 -207 -118 -10 -8 -18 -12 -18 -7 0 4 -6 3 -12 -3 -7 -5 -53 -31 -103 -58
-49 -26 -91 -51 -93 -56 -2 -4 -11 -8 -21 -8 -9 0 -21 -4 -27 -9 -7 -7 -186
-103 -246 -133 -10 -4 -28 -13 -40 -20 -54 -28 -443 -222 -448 -223 -3 -1 -23
-10 -45 -22 l-40 -21 0 -2822 0 -2823 45 -23 c25 -13 122 -60 215 -106 94 -46
173 -87 177 -93 4 -5 8 -6 8 -1 0 5 6 4 13 -2 6 -5 64 -36 127 -68 63 -32 117
-62 118 -66 2 -5 8 -6 13 -2 5 3 9 0 9 -7 0 -7 3 -10 6 -7 3 4 37 -11 74 -33
38 -21 72 -39 74 -39 3 0 31 -15 63 -33 32 -19 94 -53 138 -77 44 -23 147 -81
230 -128 82 -47 166 -94 185 -105 19 -10 47 -28 62 -38 14 -11 29 -19 33 -19
4 0 56 -30 115 -66 73 -45 107 -71 103 -80 -3 -8 -9 -14 -13 -14 -5 0 -11 -8
-14 -17 -4 -10 -19 -32 -34 -49 -15 -17 -36 -43 -47 -59 -11 -15 -25 -32 -30
-39 -6 -6 -31 -38 -55 -71 -25 -33 -49 -65 -55 -71 -5 -6 -19 -23 -30 -38 -11
-15 -62 -85 -114 -154 -52 -70 -115 -155 -140 -188 -25 -34 -53 -72 -61 -84
-36 -53 -104 -145 -110 -150 -4 -3 -13 -16 -19 -29 -12 -21 -109 -159 -121
-171 -3 -3 -11 -17 -19 -32 -8 -16 -18 -28 -23 -28 -4 0 -8 -7 -8 -15 0 -8 -4
-15 -10 -15 -5 0 -10 -7 -10 -15 0 -8 -4 -15 -8 -15 -5 0 -15 -12 -23 -27 -8
-16 -17 -30 -20 -33 -5 -5 -84 -121 -152 -225 -15 -22 -31 -45 -37 -52 -5 -7
-10 -17 -10 -23 0 -5 -4 -10 -10 -10 -5 0 -10 -5 -10 -10 0 -9 -68 -117 -98
-155 -4 -5 -30 -46 -57 -90 -27 -44 -55 -86 -62 -93 -7 -7 -13 -20 -13 -28 0
-8 -4 -14 -8 -14 -5 0 -18 -19 -31 -43 -12 -23 -40 -69 -61 -102 -22 -33 -43
-67 -47 -75 -3 -8 -16 -28 -27 -45 -30 -42 -56 -87 -62 -108 -4 -9 -10 -17
-15 -17 -5 0 -9 -6 -9 -13 0 -8 -9 -24 -20 -37 -11 -13 -20 -29 -20 -37 0 -7
-4 -13 -10 -13 -5 0 -10 -4 -10 -9 0 -5 -17 -38 -37 -72 l-38 -63 0 -1163 c0
-771 3 -1163 10 -1164 42 -4 785 -3 785 1 0 3 23 23 51 45 28 22 63 51 79 65
16 14 44 37 62 52 35 28 97 78 162 131 69 57 75 62 103 84 15 12 38 30 49 40
12 10 36 29 54 43 18 14 38 30 44 35 9 8 155 124 211 168 6 4 21 17 35 28 14
12 52 42 85 67 33 26 67 52 75 59 109 90 231 183 240 183 5 0 10 4 10 8 0 5
29 30 65 56 36 26 76 56 88 67 12 10 51 41 87 69 36 27 75 59 87 70 12 11 27
20 33 20 5 0 10 3 10 8 0 4 17 18 38 32 20 14 43 31 51 38 8 8 39 32 70 55 31
22 61 46 68 51 21 18 36 30 93 71 30 22 57 42 60 45 3 3 25 21 50 40 25 19 47
38 48 42 2 5 8 8 13 8 8 0 110 76 182 135 9 8 21 15 27 15 5 0 13 6 17 13 4 7
20 20 34 29 14 9 32 23 40 30 8 8 30 25 49 38 19 13 40 28 45 32 6 5 37 28 70
53 33 25 68 50 77 57 9 7 26 20 38 28 12 8 37 26 55 40 35 27 40 31 165 122
47 34 87 64 90 67 3 3 28 22 55 41 28 19 52 38 53 42 2 4 10 8 17 8 7 0 16 7
19 16 3 8 10 13 14 10 5 -3 15 4 22 15 8 10 18 19 23 19 9 0 88 59 99 75 4 6
8 7 8 3 0 -7 25 11 55 39 7 7 15 9 19 6 3 -4 6 -2 6 4 0 9 71 63 129 98 9 6
28 20 41 33 13 12 29 22 36 22 7 0 14 4 16 8 2 5 32 28 67 53 36 24 73 52 83
61 10 10 22 18 27 18 5 0 16 6 23 13 7 6 31 25 53 41 22 17 42 32 45 35 3 4
17 12 32 20 25 13 32 12 63 -5 19 -10 35 -21 35 -24 0 -3 18 -16 40 -30 22
-14 40 -28 40 -32 0 -5 4 -8 10 -8 13 0 100 -62 100 -72 0 -4 4 -8 10 -8 11 0
192 -129 202 -144 4 -6 8 -8 8 -4 0 4 8 1 18 -7 14 -12 134 -100 221 -163 14
-9 37 -28 53 -40 15 -13 28 -21 28 -17 0 3 15 -8 33 -24 17 -17 37 -31 44 -31
6 0 13 -4 15 -8 3 -7 18 -19 93 -74 5 -4 57 -42 115 -85 58 -42 108 -81 112
-87 4 -6 8 -7 8 -3 0 5 6 2 13 -5 8 -7 26 -22 41 -33 15 -11 68 -50 119 -88
51 -37 98 -73 106 -80 8 -6 29 -22 45 -34 17 -13 40 -30 51 -38 11 -9 38 -29
60 -45 22 -16 45 -33 50 -37 6 -5 55 -42 110 -83 55 -41 102 -77 105 -80 3 -3
23 -18 45 -35 22 -16 45 -34 51 -40 6 -5 22 -17 34 -25 12 -8 41 -30 64 -48
22 -17 46 -36 51 -40 68 -51 102 -77 110 -86 6 -6 33 -27 60 -46 28 -19 57
-40 65 -47 103 -83 182 -143 187 -143 3 0 16 -11 29 -25 13 -14 26 -25 29 -25
3 0 11 -4 18 -10 7 -5 33 -27 58 -47 26 -21 59 -47 74 -58 30 -21 49 -36 106
-84 20 -17 41 -31 45 -31 5 0 15 -9 22 -20 7 -11 19 -20 27 -20 8 0 15 -4 15
-8 0 -5 18 -21 40 -38 22 -16 59 -46 83 -66 23 -21 45 -38 49 -38 4 0 13 -6
20 -13 7 -7 94 -78 193 -157 99 -80 189 -152 200 -161 11 -10 52 -42 90 -73
39 -31 82 -67 97 -81 15 -14 29 -25 32 -25 6 0 36 -25 82 -67 13 -12 40 -34
60 -49 l36 -28 389 0 c251 -1 390 3 392 9 2 6 3 530 2 1165 l0 1155 -65 108
c-36 59 -72 120 -80 135 -8 15 -19 30 -25 34 -7 5 -7 8 0 8 6 0 6 3 -1 8 -14
9 -84 119 -84 132 0 6 -4 10 -10 10 -5 0 -10 4 -10 9 0 9 -60 105 -80 128 -5
7 -10 15 -10 17 0 3 -39 65 -87 138 -47 73 -85 134 -84 136 1 1 -4 9 -11 17
-24 26 -35 41 -39 51 -5 11 -121 187 -129 194 -16 15 -110 160 -110 169 0 6
-3 11 -8 11 -4 0 -18 18 -32 40 -14 22 -28 40 -31 40 -4 0 -9 8 -13 18 -8 22
-52 85 -111 157 -14 17 -25 35 -25 42 0 6 -4 13 -8 15 -4 2 -23 26 -42 53 -19
28 -37 52 -40 55 -5 4 -49 65 -117 159 -42 58 -103 137 -118 152 -8 9 -15 19
-15 24 0 4 -12 22 -27 40 -16 17 -35 42 -43 54 -14 22 -28 39 -71 89 -10 12
-19 26 -19 31 0 5 -4 11 -8 13 -5 2 -42 46 -82 98 -41 52 -79 100 -84 107 -12
13 -34 41 -90 112 l-34 44 36 20 c21 10 44 25 53 33 8 8 18 14 21 14 3 0 67
36 141 80 75 44 140 80 146 80 6 0 11 4 11 9 0 5 8 11 18 14 9 4 37 18 62 33
25 14 86 49 135 76 50 28 110 62 135 76 25 15 51 27 59 28 8 2 17 7 20 12 3 5
24 17 46 28 22 10 42 21 45 24 3 3 43 25 90 49 181 93 316 164 328 174 6 5 12
6 12 2 0 -5 9 0 20 10 11 10 20 14 20 10 0 -4 9 0 20 10 11 10 20 16 20 12 0
-3 37 15 82 39 45 24 87 44 95 44 7 0 13 4 13 9 0 5 14 12 30 16 17 4 30 11
30 17 0 6 2 9 5 6 3 -3 38 11 78 31 l72 37 0 2823 0 2824 -115 56 c-63 31
-116 59 -118 64 -2 4 -9 7 -16 7 -16 0 -140 62 -144 73 -2 4 -9 7 -15 7 -11 0
-178 81 -187 90 -3 3 -30 18 -60 33 -30 15 -68 34 -85 44 -16 9 -39 20 -49 26
-32 15 -168 89 -211 114 -22 12 -51 27 -63 33 -13 6 -56 29 -95 52 -40 23 -74
41 -77 41 -3 -1 -12 4 -20 10 -8 7 -31 21 -50 31 -19 11 -44 24 -55 30 -10 6
-25 17 -33 24 -7 7 -17 10 -22 7 -5 -3 -10 -1 -12 3 -1 4 -68 46 -148 91 -247
142 -246 141 -218 176 5 6 40 51 79 100 38 50 75 97 82 105 7 8 53 69 102 135
49 66 94 125 100 131 5 6 17 21 25 33 13 19 47 66 138 189 9 12 28 38 42 58
14 19 42 57 63 84 20 27 37 54 37 60 0 5 4 10 8 10 4 0 16 15 27 33 10 17 24
37 29 43 6 6 24 32 40 57 17 26 34 47 38 47 4 0 8 4 8 10 0 8 113 175 140 207
5 7 15 24 22 38 6 14 15 25 20 25 4 0 8 5 8 10 0 6 18 35 40 65 22 30 40 56
40 59 0 8 72 111 83 118 7 4 9 8 5 8 -4 0 17 35 45 78 29 42 58 90 66 105 8
15 18 27 23 27 4 0 8 6 8 13 0 7 9 23 20 35 12 12 18 22 15 22 -3 0 10 21 28
48 18 26 44 66 57 90 13 23 27 42 32 42 4 0 7 3 6 8 -3 6 88 158 133 224 11
15 19 29 19 32 0 2 23 42 52 88 28 46 58 97 66 113 8 17 22 38 31 48 14 17 16
132 16 1175 1 637 -1 1164 -3 1172 -3 13 -53 15 -385 13 -210 -1 -387 -2 -393
-2 -6 -1 -26 -14 -45 -31 -19 -16 -38 -33 -44 -37 -33 -27 -279 -228 -339
-276 -39 -32 -78 -64 -86 -70 -94 -73 -167 -132 -175 -141 -5 -7 -26 -23 -45
-36 -19 -13 -37 -27 -40 -30 -5 -5 -100 -81 -200 -159 -25 -20 -46 -39 -48
-43 -2 -5 -10 -8 -18 -8 -8 0 -14 -3 -14 -8 0 -4 -27 -27 -60 -51 -33 -24 -60
-48 -60 -52 0 -5 -5 -9 -11 -9 -6 0 -16 -6 -23 -12 -7 -7 -25 -22 -40 -33 -16
-11 -33 -24 -40 -30 -6 -5 -27 -22 -48 -37 -20 -15 -43 -35 -52 -44 -9 -8 -16
-12 -16 -7 0 4 -4 3 -8 -3 -6 -11 -143 -119 -237 -188 -22 -17 -42 -33 -45
-36 -3 -3 -61 -48 -130 -99 -69 -52 -130 -100 -136 -108 -6 -7 -15 -13 -19
-13 -4 0 -29 -18 -55 -40 -26 -22 -51 -40 -54 -40 -3 0 -14 -8 -24 -17 -34
-32 -62 -53 -71 -53 -5 0 -11 -7 -15 -15 -3 -8 -12 -15 -20 -15 -8 0 -16 -3
-18 -7 -2 -5 -30 -28 -63 -53 -33 -24 -67 -50 -75 -57 -8 -8 -71 -55 -140
-106 -69 -50 -126 -95 -128 -99 -2 -5 -8 -8 -14 -8 -6 0 -20 -9 -32 -20 -11
-11 -52 -42 -91 -70 -38 -28 -77 -56 -86 -63 -8 -7 -31 -23 -50 -37 -19 -13
-38 -28 -44 -32 -5 -5 -44 -33 -85 -63 -41 -30 -86 -63 -99 -72 -13 -10 -103
-75 -200 -145 -97 -70 -185 -134 -196 -143 -11 -9 -32 -24 -47 -33 -16 -9 -28
-20 -28 -24 0 -4 -6 -8 -13 -8 -7 0 -24 -11 -39 -25 -15 -14 -29 -25 -32 -25
-3 0 -34 -21 -69 -47 -36 -27 -75 -55 -87 -63 -12 -8 -32 -22 -44 -31 -11 -9
-38 -28 -59 -42 l-39 -26 -31 22 c-18 12 -34 24 -37 27 -3 3 -43 32 -90 65
-47 32 -86 62 -88 67 -2 4 -9 8 -16 8 -7 0 -23 11 -36 25 -13 14 -29 25 -37
25 -7 0 -13 5 -13 10 0 6 -6 10 -14 10 -8 0 -16 3 -18 8 -4 10 -77 66 -106 81
-13 7 -32 20 -42 29 -32 29 -49 42 -55 42 -8 0 -89 63 -93 73 -2 4 -10 7 -17
7 -7 0 -15 3 -17 8 -1 4 -38 32 -82 62 -43 30 -86 63 -94 73 -9 9 -20 17 -25
17 -5 0 -14 6 -22 13 -7 6 -23 20 -36 29 -82 57 -287 210 -300 223 -9 8 -19
15 -23 15 -4 0 -13 6 -21 13 -7 6 -26 22 -42 33 -15 12 -68 51 -116 88 -49 36
-90 66 -93 66 -2 0 -13 8 -23 18 -23 20 -27 23 -111 85 -36 27 -72 54 -80 61
-9 6 -42 32 -75 56 -33 25 -66 50 -72 55 -17 13 -40 31 -158 120 -55 42 -107
81 -115 88 -8 7 -35 28 -60 47 -25 19 -46 38 -48 42 -2 5 -8 8 -13 8 -8 0 -31
17 -63 45 -6 6 -27 22 -46 35 -19 13 -37 27 -40 30 -3 3 -34 28 -70 55 -36 28
-73 58 -82 68 -10 9 -18 15 -18 11 0 -3 -15 9 -32 25 -18 17 -39 31 -45 31 -7
0 -13 4 -13 8 0 5 -21 24 -47 43 -27 18 -61 46 -77 61 -16 16 -33 28 -37 28
-5 0 -17 8 -27 18 -10 9 -36 31 -57 47 -57 44 -304 241 -349 278 -21 18 -61
48 -87 69 -27 20 -56 44 -65 53 -10 9 -42 35 -73 58 -31 23 -60 47 -66 53 -5
6 -32 28 -60 50 -27 21 -55 44 -61 49 -7 6 -31 26 -55 45 -24 19 -54 45 -67
58 -13 12 -25 22 -28 22 -3 0 -26 18 -51 40 -25 22 -51 40 -57 41 -54 4 -749
3 -763 -1z m4956 -8387 c88 -87 210 -207 271 -266 l112 -109 -70 -66 c-139
-132 -476 -458 -505 -489 -17 -18 -34 -33 -38 -33 -5 0 -71 62 -148 138 -77
75 -199 195 -271 265 l-132 129 84 79 c124 117 358 344 446 431 42 43 80 77
84 78 4 0 79 -71 167 -157z"/>
</g>
</svg>
