<svg width="141" height="261" viewBox="0 0 141 261" fill="none" xmlns="http://www.w3.org/2000/svg">
<mask id="mask0_22_3491" style="mask-type:alpha" maskUnits="userSpaceOnUse" x="34" y="73" width="108" height="188">
<rect x="34.8563" y="73" width="106.144" height="188" fill="#C4C4C4"/>
</mask>
<g mask="url(#mask0_22_3491)">
<path d="M229.758 173.413L195.902 118.652C195.902 118.652 192.176 90.2202 182.3 99.9604C172.423 109.701 166.16 122.864 159.174 124.181C152.187 125.497 149.295 123.127 148.814 118.652C148.333 114.177 142.562 110.446 139.902 110.491C134.762 110.578 128.821 113.387 116.776 129.974C104.731 146.56 82.8072 176.572 82.8072 176.572L83.7711 189.209C83.7711 189.209 54.8631 192.631 48.1172 192.631C41.3712 192.631 38.7217 191.666 38.7217 191.666C38.7217 191.666 37.7699 215.275 39.0436 225.014C40.409 235.457 43.8599 250.991 57.9937 254.764C68.4414 257.554 80.881 254.238 89.3125 242.391C97.7441 230.544 141.587 162.355 141.587 162.355L141.347 232.386L201.331 216.327L212.655 252.657L229.758 173.413Z" fill="url(#paint0_linear_22_3491)"/>
</g>
<path d="M31.3474 0L16.8683 14.4769V88.8606H83.5148V0H31.3474Z" fill="#0055FF"/>
<path d="M16.8708 29.2372V14.8112H31.2969" fill="#0055FF"/>
<path d="M31.2966 0V14.4261H16.8705" fill="#000103"/>
<path d="M28.1947 26.3828H53.4956" stroke="white" stroke-width="2.33831" stroke-linecap="round" stroke-linejoin="round"/>
<path d="M28.1969 35.3893H71.2054" stroke="white" stroke-width="2.33831" stroke-linecap="round" stroke-linejoin="round"/>
<path d="M28.1947 44.4373H66.1438" stroke="white" stroke-width="2.33831" stroke-linecap="round" stroke-linejoin="round"/>
<path d="M28.1947 55.6775H50.9659" stroke="white" stroke-width="2.33831" stroke-linecap="round" stroke-linejoin="round"/>
<path d="M62.3882 146.46C64.0202 146.343 65.6383 145.403 66.7701 143.716C68.8243 140.654 68.5042 136.292 66.0554 133.976C61.7877 129.936 54.3668 130.272 42.6264 131.165C34.8906 131.751 26.1095 132.415 21.5303 130.592C17.4755 128.979 12.7648 122.728 11.4339 120.664C9.53026 117.708 5.90636 117.281 3.3416 119.719C0.77684 122.157 0.235161 126.526 2.13364 129.491C2.85876 130.624 9.44545 140.648 17.3993 143.814C24.0466 146.46 33.5736 145.736 42.7752 145.043C48.3218 144.625 56.6737 143.992 58.7245 145.163C59.8044 146.131 61.1006 146.553 62.3882 146.46ZM58.6155 145.062C58.6259 145.072 58.6345 145.081 58.6449 145.091C58.6345 145.081 58.6241 145.072 58.6155 145.062Z" fill="white"/>
<path d="M62.3882 146.46C64.0202 146.343 65.6383 145.403 66.7701 143.716C68.8243 140.654 68.5042 136.292 66.0554 133.976C61.7877 129.936 54.3668 130.272 42.6264 131.165C34.8906 131.751 26.1095 132.415 21.5303 130.592C17.4755 128.979 12.7648 122.728 11.4339 120.664C9.53026 117.708 5.90636 117.281 3.3416 119.719C0.77684 122.157 0.235163 126.526 2.13364 129.491C2.85876 130.624 9.44545 140.648 17.3993 143.814C24.0466 146.46 33.5736 145.736 42.7752 145.043C48.3218 144.625 56.6737 143.992 58.7245 145.163C59.8044 146.131 61.1006 146.553 62.3882 146.46ZM58.6155 145.062C58.6259 145.072 58.6345 145.081 58.6449 145.091C58.6345 145.081 58.6241 145.072 58.6155 145.062Z" stroke="#000103" stroke-width="2" stroke-linecap="round" stroke-linejoin="round"/>
<path d="M59.9584 145.515C61.1958 147.09 62.9541 147.761 64.6795 147.51C65.8719 147.336 67.0487 146.719 68.0265 145.655C70.4528 143.012 70.7331 138.611 68.6529 135.825C65.0273 130.969 57.7242 129.853 46.11 128.434C38.4556 127.498 29.78 126.439 25.547 123.727C21.7985 121.325 18.0396 114.183 17.0185 111.87C15.5544 108.555 12.0673 107.42 9.22733 109.343C6.3874 111.265 5.2625 115.503 6.71795 118.826C7.27347 120.095 12.3563 131.362 19.7096 136.071C25.855 140.007 35.2661 141.157 44.3708 142.269L59.9584 145.515ZM59.8666 145.394C59.8753 145.407 59.884 145.418 59.8926 145.43C59.884 145.418 59.8753 145.405 59.8666 145.394Z" fill="white"/>
<path d="M59.9584 145.515C61.1958 147.09 62.9541 147.761 64.6795 147.51C65.8719 147.336 67.0487 146.719 68.0265 145.655C70.4528 143.012 70.7331 138.611 68.6529 135.825C65.0273 130.969 57.7242 129.853 46.11 128.434C38.4556 127.498 29.78 126.439 25.547 123.727C21.7985 121.325 18.0396 114.183 17.0185 111.87C15.5544 108.555 12.0673 107.42 9.22733 109.343C6.3874 111.265 5.2625 115.503 6.71794 118.826C7.27347 120.095 12.3563 131.362 19.7096 136.071C25.855 140.007 35.2661 141.157 44.3708 142.269L59.9584 145.515ZM59.8666 145.394C59.8753 145.407 59.884 145.418 59.8926 145.43C59.884 145.418 59.8753 145.405 59.8666 145.394Z" stroke="#000103" stroke-width="2" stroke-linecap="round" stroke-linejoin="round"/>
<path d="M46.8143 141.433C46.8143 141.433 39.7482 188.636 39.9352 192.519C40.1221 196.402 83.9376 191.277 83.9376 191.277C83.9376 191.277 81.3538 143.374 81.1479 142.479C79.7201 136.251 77.4634 129.469 68.7152 127.78C66.3563 127.324 62.9644 127.367 58.669 127.422C51.8521 127.509 42.5172 127.628 37.4898 125.378C31.9553 122.898 27.9853 113.415 27.0317 110.289C25.9518 106.745 22.6533 105.069 19.6265 106.55C16.6187 108.027 15.0577 112.099 16.1393 115.643C16.6914 117.451 21.8503 133.455 32.9764 138.437C35.7229 139.667 38.9608 140.391 42.3719 140.813L46.8143 141.433Z" fill="white"/>
<path d="M46.8143 141.433C46.8143 141.433 39.7482 188.636 39.9352 192.519C40.1221 196.402 83.9376 191.277 83.9376 191.277C83.9376 191.277 81.3538 143.374 81.1479 142.479C79.7201 136.251 77.4634 129.469 68.7152 127.78C66.3563 127.324 62.9644 127.367 58.669 127.422C51.8521 127.509 42.5172 127.628 37.4898 125.378C31.9553 122.898 27.9853 113.415 27.0317 110.289C25.9518 106.745 22.6533 105.069 19.6265 106.55C16.6187 108.027 15.0577 112.099 16.1393 115.643C16.6914 117.451 21.8503 133.455 32.9764 138.437C35.7229 139.667 38.9608 140.391 42.3719 140.813L46.8143 141.433Z" stroke="#000103" stroke-width="2" stroke-linecap="round" stroke-linejoin="round"/>
<path d="M33.5001 77.26L28.6601 72.68L33.5001 68.08H35.7801L30.9401 72.68L35.7801 77.26H33.5001ZM37.0976 68.08H39.3776L44.2176 72.68L39.3776 77.26H37.0976L41.9376 72.68L37.0976 68.08Z" fill="white"/>
<defs>
<linearGradient id="paint0_linear_22_3491" x1="112.634" y1="111" x2="204.298" y2="219.106" gradientUnits="userSpaceOnUse">
<stop stop-color="#0055FF"/>
<stop offset="1" stop-color="#6C63FF"/>
</linearGradient>
</defs>
</svg>
