<svg width="159" height="150" viewBox="0 0 159 150" fill="none" xmlns="http://www.w3.org/2000/svg">
<path d="M44.1501 140.28H36.8541L35.5101 144H33.2061L39.2541 127.368H41.7741L47.7981 144H45.4941L44.1501 140.28ZM43.5261 138.504L40.5021 130.056L37.4781 138.504H43.5261ZM56.8419 130.608C58.4419 130.608 59.7379 131.096 60.7299 132.072C61.7219 133.032 62.2179 134.424 62.2179 136.248V144H60.0579V136.56C60.0579 135.248 59.7299 134.248 59.0739 133.56C58.4179 132.856 57.5219 132.504 56.3859 132.504C55.2339 132.504 54.3139 132.864 53.6259 133.584C52.9539 134.304 52.6179 135.352 52.6179 136.728V144H50.4339V130.848H52.6179V132.72C53.0499 132.048 53.6339 131.528 54.3699 131.16C55.1219 130.792 55.9459 130.608 56.8419 130.608ZM64.9695 137.376C64.9695 136.032 65.2415 134.856 65.7855 133.848C66.3295 132.824 67.0735 132.032 68.0175 131.472C68.9775 130.912 70.0495 130.632 71.2335 130.632C72.2575 130.632 73.2095 130.872 74.0895 131.352C74.9695 131.816 75.6415 132.432 76.1055 133.2V126.24H78.3135V144H76.1055V141.528C75.6735 142.312 75.0335 142.96 74.1855 143.472C73.3375 143.968 72.3455 144.216 71.2095 144.216C70.0415 144.216 68.9775 143.928 68.0175 143.352C67.0735 142.776 66.3295 141.968 65.7855 140.928C65.2415 139.888 64.9695 138.704 64.9695 137.376ZM76.1055 137.4C76.1055 136.408 75.9055 135.544 75.5055 134.808C75.1055 134.072 74.5615 133.512 73.8735 133.128C73.2015 132.728 72.4575 132.528 71.6415 132.528C70.8255 132.528 70.0815 132.72 69.4095 133.104C68.7375 133.488 68.2015 134.048 67.8015 134.784C67.4015 135.52 67.2015 136.384 67.2015 137.376C67.2015 138.384 67.4015 139.264 67.8015 140.016C68.2015 140.752 68.7375 141.32 69.4095 141.72C70.0815 142.104 70.8255 142.296 71.6415 142.296C72.4575 142.296 73.2015 142.104 73.8735 141.72C74.5615 141.32 75.1055 140.752 75.5055 140.016C75.9055 139.264 76.1055 138.392 76.1055 137.4ZM84.1883 132.984C84.5723 132.232 85.1163 131.648 85.8203 131.232C86.5403 130.816 87.4123 130.608 88.4363 130.608V132.864H87.8603C85.4123 132.864 84.1883 134.192 84.1883 136.848V144H82.0043V130.848H84.1883V132.984ZM96.6934 144.216C95.4614 144.216 94.3414 143.936 93.3334 143.376C92.3414 142.816 91.5574 142.024 90.9814 141C90.4214 139.96 90.1414 138.76 90.1414 137.4C90.1414 136.056 90.4294 134.872 91.0054 133.848C91.5974 132.808 92.3974 132.016 93.4054 131.472C94.4134 130.912 95.5414 130.632 96.7894 130.632C98.0374 130.632 99.1654 130.912 100.173 131.472C101.181 132.016 101.973 132.8 102.549 133.824C103.141 134.848 103.437 136.04 103.437 137.4C103.437 138.76 103.133 139.96 102.525 141C101.933 142.024 101.125 142.816 100.101 143.376C99.0774 143.936 97.9414 144.216 96.6934 144.216ZM96.6934 142.296C97.4774 142.296 98.2134 142.112 98.9014 141.744C99.5894 141.376 100.141 140.824 100.557 140.088C100.989 139.352 101.205 138.456 101.205 137.4C101.205 136.344 100.997 135.448 100.581 134.712C100.165 133.976 99.6214 133.432 98.9494 133.08C98.2774 132.712 97.5494 132.528 96.7654 132.528C95.9654 132.528 95.2294 132.712 94.5574 133.08C93.9014 133.432 93.3734 133.976 92.9734 134.712C92.5734 135.448 92.3734 136.344 92.3734 137.4C92.3734 138.472 92.5654 139.376 92.9494 140.112C93.3494 140.848 93.8774 141.4 94.5334 141.768C95.1894 142.12 95.9094 142.296 96.6934 142.296ZM107.437 128.712C107.021 128.712 106.669 128.568 106.381 128.28C106.093 127.992 105.949 127.64 105.949 127.224C105.949 126.808 106.093 126.456 106.381 126.168C106.669 125.88 107.021 125.736 107.437 125.736C107.837 125.736 108.173 125.88 108.445 126.168C108.733 126.456 108.877 126.808 108.877 127.224C108.877 127.64 108.733 127.992 108.445 128.28C108.173 128.568 107.837 128.712 107.437 128.712ZM108.493 130.848V144H106.309V130.848H108.493ZM111.399 137.376C111.399 136.032 111.671 134.856 112.215 133.848C112.759 132.824 113.503 132.032 114.447 131.472C115.407 130.912 116.479 130.632 117.663 130.632C118.687 130.632 119.639 130.872 120.519 131.352C121.399 131.816 122.071 132.432 122.535 133.2V126.24H124.743V144H122.535V141.528C122.103 142.312 121.463 142.96 120.615 143.472C119.767 143.968 118.775 144.216 117.639 144.216C116.471 144.216 115.407 143.928 114.447 143.352C113.503 142.776 112.759 141.968 112.215 140.928C111.671 139.888 111.399 138.704 111.399 137.376ZM122.535 137.4C122.535 136.408 122.335 135.544 121.935 134.808C121.535 134.072 120.991 133.512 120.303 133.128C119.631 132.728 118.887 132.528 118.071 132.528C117.255 132.528 116.511 132.72 115.839 133.104C115.167 133.488 114.631 134.048 114.231 134.784C113.831 135.52 113.631 136.384 113.631 137.376C113.631 138.384 113.831 139.264 114.231 140.016C114.631 140.752 115.167 141.32 115.839 141.72C116.511 142.104 117.255 142.296 118.071 142.296C118.887 142.296 119.631 142.104 120.303 141.72C120.991 141.32 121.535 140.752 121.935 140.016C122.335 139.264 122.535 138.392 122.535 137.4Z" fill="white"/>
<path d="M111.667 51.7H46.3333V84.6H111.667V51.7ZM111.667 42.3C111.667 33.5744 108.225 25.2062 102.099 19.0362C95.9726 12.8663 87.6637 9.40005 79 9.40005C70.3362 9.40005 62.0273 12.8663 55.9012 19.0362C49.775 25.2062 46.3333 33.5744 46.3333 42.3H111.667ZM52.7827 9.24965C60.2201 3.24806 69.4697 -0.0152509 79 5.35875e-05C88.9166 5.35875e-05 98.0306 3.45925 105.217 9.24965L111.998 2.42055L118.597 9.06635L111.816 15.8954C117.775 23.386 121.015 32.7017 121 42.3V89.3C121 90.5465 120.508 91.742 119.633 92.6234C118.758 93.5048 117.571 94 116.333 94H41.6667C40.429 94 39.242 93.5048 38.3668 92.6234C37.4917 91.742 37 90.5465 37 89.3V42.3C37 32.3125 40.4347 23.1334 46.184 15.8954L39.4033 9.07105L46.002 2.42525L52.7827 9.25435V9.24965ZM65 32.9C63.7623 32.9 62.5753 32.4049 61.7002 31.5234C60.825 30.642 60.3333 29.4466 60.3333 28.2C60.3333 26.9535 60.825 25.7581 61.7002 24.8766C62.5753 23.9952 63.7623 23.5 65 23.5C66.2377 23.5 67.4246 23.9952 68.2998 24.8766C69.175 25.7581 69.6666 26.9535 69.6666 28.2C69.6666 29.4466 69.175 30.642 68.2998 31.5234C67.4246 32.4049 66.2377 32.9 65 32.9ZM93 32.9C91.7623 32.9 90.5753 32.4049 89.7001 31.5234C88.825 30.642 88.3333 29.4466 88.3333 28.2C88.3333 26.9535 88.825 25.7581 89.7001 24.8766C90.5753 23.9952 91.7623 23.5 93 23.5C94.2376 23.5 95.4246 23.9952 96.2998 24.8766C97.175 25.7581 97.6666 26.9535 97.6666 28.2C97.6666 29.4466 97.175 30.642 96.2998 31.5234C95.4246 32.4049 94.2376 32.9 93 32.9Z" fill="white"/>
</svg>
