<svg width="159" height="137" viewBox="0 0 159 137" fill="none" xmlns="http://www.w3.org/2000/svg">
<path d="M41.8649 127.28H34.5689L33.2249 131H30.9209L36.9689 114.368H39.4889L45.5129 131H43.2089L41.8649 127.28ZM41.2409 125.504L38.2169 117.056L35.1929 125.504H41.2409ZM63.9648 117.608C64.9888 117.608 65.9008 117.824 66.7008 118.256C67.5008 118.672 68.1328 119.304 68.5968 120.152C69.0608 121 69.2928 122.032 69.2928 123.248V131H67.1328V123.56C67.1328 122.248 66.8048 121.248 66.1488 120.56C65.5088 119.856 64.6368 119.504 63.5328 119.504C62.3968 119.504 61.4928 119.872 60.8208 120.608C60.1488 121.328 59.8128 122.376 59.8128 123.752V131H57.6528V123.56C57.6528 122.248 57.3248 121.248 56.6688 120.56C56.0288 119.856 55.1568 119.504 54.0528 119.504C52.9168 119.504 52.0128 119.872 51.3408 120.608C50.6688 121.328 50.3328 122.376 50.3328 123.752V131H48.1488V117.848H50.3328V119.744C50.7648 119.056 51.3408 118.528 52.0608 118.16C52.7968 117.792 53.6048 117.608 54.4848 117.608C55.5888 117.608 56.5648 117.856 57.4128 118.352C58.2608 118.848 58.8928 119.576 59.3088 120.536C59.6768 119.608 60.2848 118.888 61.1328 118.376C61.9808 117.864 62.9248 117.608 63.9648 117.608ZM72.0593 124.376C72.0593 123.032 72.3313 121.856 72.8753 120.848C73.4193 119.824 74.1633 119.032 75.1073 118.472C76.0673 117.912 77.1313 117.632 78.2993 117.632C79.4513 117.632 80.4513 117.88 81.2993 118.376C82.1473 118.872 82.7793 119.496 83.1953 120.248V117.848H85.4033V131H83.1953V128.552C82.7633 129.32 82.1153 129.96 81.2513 130.472C80.4033 130.968 79.4113 131.216 78.2753 131.216C77.1073 131.216 76.0513 130.928 75.1073 130.352C74.1633 129.776 73.4193 128.968 72.8753 127.928C72.3313 126.888 72.0593 125.704 72.0593 124.376ZM83.1953 124.4C83.1953 123.408 82.9953 122.544 82.5953 121.808C82.1953 121.072 81.6513 120.512 80.9633 120.128C80.2913 119.728 79.5473 119.528 78.7313 119.528C77.9153 119.528 77.1713 119.72 76.4993 120.104C75.8273 120.488 75.2913 121.048 74.8913 121.784C74.4913 122.52 74.2913 123.384 74.2913 124.376C74.2913 125.384 74.4913 126.264 74.8913 127.016C75.2913 127.752 75.8273 128.32 76.4993 128.72C77.1713 129.104 77.9153 129.296 78.7313 129.296C79.5473 129.296 80.2913 129.104 80.9633 128.72C81.6513 128.32 82.1953 127.752 82.5953 127.016C82.9953 126.264 83.1953 125.392 83.1953 124.4ZM90.7261 129.2H97.1821V131H88.2301V129.2L94.6141 119.624H88.2781V117.848H97.1341V119.624L90.7261 129.2ZM105.752 131.216C104.52 131.216 103.4 130.936 102.392 130.376C101.4 129.816 100.616 129.024 100.04 128C99.48 126.96 99.2 125.76 99.2 124.4C99.2 123.056 99.488 121.872 100.064 120.848C100.656 119.808 101.456 119.016 102.464 118.472C103.472 117.912 104.6 117.632 105.848 117.632C107.096 117.632 108.224 117.912 109.232 118.472C110.24 119.016 111.032 119.8 111.608 120.824C112.2 121.848 112.496 123.04 112.496 124.4C112.496 125.76 112.192 126.96 111.584 128C110.992 129.024 110.184 129.816 109.16 130.376C108.136 130.936 107 131.216 105.752 131.216ZM105.752 129.296C106.536 129.296 107.272 129.112 107.96 128.744C108.648 128.376 109.2 127.824 109.616 127.088C110.048 126.352 110.264 125.456 110.264 124.4C110.264 123.344 110.056 122.448 109.64 121.712C109.224 120.976 108.68 120.432 108.008 120.08C107.336 119.712 106.608 119.528 105.824 119.528C105.024 119.528 104.288 119.712 103.616 120.08C102.96 120.432 102.432 120.976 102.032 121.712C101.632 122.448 101.432 123.344 101.432 124.4C101.432 125.472 101.624 126.376 102.008 127.112C102.408 127.848 102.936 128.4 103.592 128.768C104.248 129.12 104.968 129.296 105.752 129.296ZM121.776 117.608C123.376 117.608 124.672 118.096 125.664 119.072C126.656 120.032 127.152 121.424 127.152 123.248V131H124.992V123.56C124.992 122.248 124.664 121.248 124.008 120.56C123.352 119.856 122.456 119.504 121.32 119.504C120.168 119.504 119.248 119.864 118.56 120.584C117.888 121.304 117.552 122.352 117.552 123.728V131H115.368V117.848H117.552V119.72C117.984 119.048 118.568 118.528 119.304 118.16C120.056 117.792 120.88 117.608 121.776 117.608Z" fill="white"/>
<path d="M75.0227 32.6121C76.426 26.7184 77.8037 20.8248 79.207 14.9311C80.0999 11.1806 81.044 7.43005 81.8604 3.65402C82.2431 1.86806 83.1616 1.2047 84.9986 1.23021C91.0453 1.33227 90.0758 0.745451 91.4281 6.33296C93.5967 15.2117 95.6123 24.116 98.1382 33.0714C99.1077 29.4229 100.052 25.7999 100.996 22.1515C102.527 16.2833 104.108 10.4152 105.486 4.52148C106.047 2.12318 107.068 1.10263 109.645 1.20469C114.135 1.38328 114.161 1.2302 112.783 5.61856C109.39 16.5384 105.92 27.4073 102.603 38.3527C101.991 40.3938 101.047 41.3378 98.8015 41.2868C93.0099 41.1592 93.9284 41.6185 92.6272 36.4137C90.5861 28.3003 88.7236 20.1614 86.7845 12.048C86.657 11.5378 86.7335 10.9254 85.9426 10.6193C83.825 19.498 81.7328 28.3768 79.5642 37.2301C79.2325 38.5568 79.3856 40.4703 77.8802 40.9296C75.7881 41.5929 73.4919 41.4399 71.3232 40.9551C70.5323 40.7765 70.3282 39.8325 70.073 39.0671C66.5011 27.3053 62.9037 15.5434 59.3318 3.78159C58.8215 2.07217 59.1277 1.15367 61.2708 1.23021C66.8838 1.40881 66.297 0.515827 67.7768 6.33296C69.9965 15.1097 72.2417 23.8864 74.4869 32.6631C74.7165 32.6376 74.8696 32.6121 75.0227 32.6121Z" fill="white"/>
<path d="M86.4017 81.0884C61.4493 80.9098 40.2219 73.868 21.6734 59.1465C20.3722 58.126 19.122 57.0289 17.8973 55.9318C17.4126 55.4981 16.5961 54.9878 17.234 54.1969C17.7698 53.5335 18.4076 54.1203 18.9179 54.401C22.5408 56.34 26.1383 58.3046 29.8888 59.963C42.2119 65.4739 55.0198 69.0714 68.4146 70.8318C91.7851 73.9445 114.263 70.7043 136.051 62.0296C136.409 61.8765 136.791 61.7234 137.149 61.5703C138.22 61.1111 139.215 61.1366 139.828 62.2337C140.389 63.2798 139.47 63.8411 138.858 64.3769C136.281 66.4945 133.398 68.1529 130.489 69.7092C120.641 74.914 110.155 78.1287 99.1586 79.8637C94.413 80.6036 89.693 80.6291 86.4017 81.0884Z" fill="white"/>
<path d="M47.7229 36.1586C45.044 38.9907 42.0589 41.1338 38.2828 41.8737C35.9356 42.333 33.5628 42.384 31.2155 41.9503C26.0873 40.9807 22.6684 37.1026 22.2857 32.0254C21.801 25.4684 24.5564 20.9269 30.246 18.7838C35.2722 16.8958 40.375 17.5336 45.4012 18.6052C47.1106 18.9624 47.5698 18.5286 47.3657 16.9723C47.3402 16.7427 47.3657 16.4875 47.3657 16.2579C47.2892 8.90996 45.4522 5.54214 35.6804 6.25652C32.7719 6.48615 29.9654 7.40464 27.2609 8.55276C25.6025 9.24163 24.8371 9.06304 24.7095 7.02194C24.5564 4.62364 25.3474 3.22039 27.6691 2.35292C32.8739 0.362851 38.1808 -0.402558 43.6918 0.490423C50.555 1.58751 54.28 6.00139 54.5096 13.2983C54.6371 17.9418 54.5861 22.6108 54.5606 27.2799C54.5351 30.5456 54.8157 33.7604 56.5252 36.6434C57.163 37.7405 56.9844 38.5825 55.9639 39.2713C55.5046 39.5775 55.0709 39.9092 54.6116 40.2153C52.0347 41.9503 51.2693 41.8227 49.5089 39.1948C48.8966 38.2508 48.3863 37.2812 47.7229 36.1586ZM36.5989 36.4648C43.5387 36.4393 47.8505 31.9744 47.4678 25.3408C47.4168 24.4478 47.2892 23.8355 46.2686 23.6569C42.6202 22.9935 38.9462 22.4067 35.2467 23.2232C31.4707 24.0396 29.4806 27.1013 29.9654 31.2345C30.3481 34.5768 32.7464 36.4903 36.5989 36.4648Z" fill="white"/>
<path d="M130.643 42.486C126.867 42.3074 123.065 41.7716 119.468 40.1897C117.35 39.2712 116.227 36.4902 117.197 34.4747C117.886 33.0459 119.008 33.9389 119.825 34.2961C123.601 35.9289 127.53 36.5668 131.612 36.4137C133.449 36.3372 135.235 35.98 136.791 35.0104C140.312 32.8418 140.261 28.3769 136.664 26.3613C133.551 24.6008 130.005 23.9885 126.662 22.8404C124.009 21.9219 121.56 20.6972 119.825 18.4265C115.156 12.3032 117.733 4.21534 125.336 1.33229C131.025 -0.836377 136.664 -0.173011 142.2 1.99566C144.267 2.8121 145.185 5.26142 144.446 7.35354C143.884 8.9354 142.787 8.221 141.92 7.8383C138.526 6.30747 134.954 5.89925 131.28 6.10336C129.928 6.17991 128.627 6.46056 127.428 7.09841C124.315 8.7568 123.958 12.7625 126.714 15.0077C128.27 16.2834 130.209 16.8191 132.071 17.457C134.597 18.3244 137.2 19.0133 139.7 19.9828C143.476 21.4626 146.078 24.0395 146.589 28.2493C147.15 32.8673 145.594 36.6433 141.767 39.3733C138.45 41.6695 134.674 42.3584 130.643 42.486Z" fill="white"/>
<path d="M142.889 51.3137C145.287 51.2372 147.635 51.2882 149.931 52.0536C151.309 52.5128 152.049 53.3038 151.997 54.8091C151.666 62.3356 149.217 68.9692 143.91 74.4036C143.501 74.8374 143.017 75.5773 142.353 75.169C141.664 74.7098 142.277 74.0209 142.481 73.4851C143.833 69.8622 145.262 66.2903 146.078 62.5142C147.124 57.7942 145.696 55.9062 140.822 55.651C137.046 55.4724 133.27 55.8296 129.545 56.442C128.882 56.544 127.938 56.9267 127.632 56.1103C127.3 55.2428 128.321 54.9877 128.882 54.656C133.219 52.1046 137.914 51.0586 142.889 51.3137Z" fill="white"/>
</svg>
