<svg width="159" height="166" viewBox="0 0 159 166" fill="none" xmlns="http://www.w3.org/2000/svg">
<path d="M39.9563 143.272V145.048H32.6843V150.688H38.5883V152.464H32.6843V160H30.5003V143.272H39.9563ZM43.7221 144.712C43.3061 144.712 42.9541 144.568 42.6661 144.28C42.3781 143.992 42.2341 143.64 42.2341 143.224C42.2341 142.808 42.3781 142.456 42.6661 142.168C42.9541 141.88 43.3061 141.736 43.7221 141.736C44.1221 141.736 44.4581 141.88 44.7301 142.168C45.0181 142.456 45.1621 142.808 45.1621 143.224C45.1621 143.64 45.0181 143.992 44.7301 144.28C44.4581 144.568 44.1221 144.712 43.7221 144.712ZM44.7781 146.848V160H42.5941V146.848H44.7781ZM50.6843 148.984C51.0683 148.232 51.6123 147.648 52.3163 147.232C53.0363 146.816 53.9083 146.608 54.9323 146.608V148.864H54.3563C51.9083 148.864 50.6843 150.192 50.6843 152.848V160H48.5003V146.848H50.6843V148.984ZM69.4535 152.92C69.4535 153.336 69.4295 153.776 69.3815 154.24H58.8695C58.9495 155.536 59.3895 156.552 60.1895 157.288C61.0055 158.008 61.9895 158.368 63.1415 158.368C64.0855 158.368 64.8695 158.152 65.4935 157.72C66.1335 157.272 66.5815 156.68 66.8375 155.944H69.1895C68.8375 157.208 68.1335 158.24 67.0775 159.04C66.0215 159.824 64.7095 160.216 63.1415 160.216C61.8935 160.216 60.7735 159.936 59.7815 159.376C58.8055 158.816 58.0375 158.024 57.4775 157C56.9175 155.96 56.6375 154.76 56.6375 153.4C56.6375 152.04 56.9095 150.848 57.4535 149.824C57.9975 148.8 58.7575 148.016 59.7335 147.472C60.7255 146.912 61.8615 146.632 63.1415 146.632C64.3895 146.632 65.4935 146.904 66.4535 147.448C67.4135 147.992 68.1495 148.744 68.6615 149.704C69.1895 150.648 69.4535 151.72 69.4535 152.92ZM67.1975 152.464C67.1975 151.632 67.0135 150.92 66.6455 150.328C66.2775 149.72 65.7735 149.264 65.1335 148.96C64.5095 148.64 63.8135 148.48 63.0455 148.48C61.9415 148.48 60.9975 148.832 60.2135 149.536C59.4455 150.24 59.0055 151.216 58.8935 152.464H67.1975ZM74.5203 149.296C74.9683 148.512 75.6243 147.872 76.4883 147.376C77.3523 146.88 78.3363 146.632 79.4403 146.632C80.6243 146.632 81.6883 146.912 82.6323 147.472C83.5763 148.032 84.3203 148.824 84.8643 149.848C85.4083 150.856 85.6803 152.032 85.6803 153.376C85.6803 154.704 85.4083 155.888 84.8643 156.928C84.3203 157.968 83.5683 158.776 82.6083 159.352C81.6643 159.928 80.6083 160.216 79.4403 160.216C78.3043 160.216 77.3043 159.968 76.4403 159.472C75.5923 158.976 74.9523 158.344 74.5203 157.576V160H72.3363V142.24H74.5203V149.296ZM83.4483 153.376C83.4483 152.384 83.2483 151.52 82.8483 150.784C82.4483 150.048 81.9043 149.488 81.2163 149.104C80.5443 148.72 79.8003 148.528 78.9843 148.528C78.1843 148.528 77.4403 148.728 76.7523 149.128C76.0803 149.512 75.5363 150.08 75.1203 150.832C74.7203 151.568 74.5203 152.424 74.5203 153.4C74.5203 154.392 74.7203 155.264 75.1203 156.016C75.5363 156.752 76.0803 157.32 76.7523 157.72C77.4403 158.104 78.1843 158.296 78.9843 158.296C79.8003 158.296 80.5443 158.104 81.2163 157.72C81.9043 157.32 82.4483 156.752 82.8483 156.016C83.2483 155.264 83.4483 154.384 83.4483 153.376ZM87.739 153.376C87.739 152.032 88.011 150.856 88.555 149.848C89.099 148.824 89.843 148.032 90.787 147.472C91.747 146.912 92.811 146.632 93.979 146.632C95.131 146.632 96.131 146.88 96.979 147.376C97.827 147.872 98.459 148.496 98.875 149.248V146.848H101.083V160H98.875V157.552C98.443 158.32 97.795 158.96 96.931 159.472C96.083 159.968 95.091 160.216 93.955 160.216C92.787 160.216 91.731 159.928 90.787 159.352C89.843 158.776 89.099 157.968 88.555 156.928C88.011 155.888 87.739 154.704 87.739 153.376ZM98.875 153.4C98.875 152.408 98.675 151.544 98.275 150.808C97.875 150.072 97.331 149.512 96.643 149.128C95.971 148.728 95.227 148.528 94.411 148.528C93.595 148.528 92.851 148.72 92.179 149.104C91.507 149.488 90.971 150.048 90.571 150.784C90.171 151.52 89.971 152.384 89.971 153.376C89.971 154.384 90.171 155.264 90.571 156.016C90.971 156.752 91.507 157.32 92.179 157.72C92.851 158.104 93.595 158.296 94.411 158.296C95.227 158.296 95.971 158.104 96.643 157.72C97.331 157.32 97.875 156.752 98.275 156.016C98.675 155.264 98.875 154.392 98.875 153.4ZM109.43 160.216C108.422 160.216 107.518 160.048 106.718 159.712C105.918 159.36 105.286 158.88 104.822 158.272C104.358 157.648 104.102 156.936 104.054 156.136H106.31C106.374 156.792 106.678 157.328 107.222 157.744C107.782 158.16 108.51 158.368 109.406 158.368C110.238 158.368 110.894 158.184 111.374 157.816C111.854 157.448 112.094 156.984 112.094 156.424C112.094 155.848 111.838 155.424 111.326 155.152C110.814 154.864 110.022 154.584 108.95 154.312C107.974 154.056 107.174 153.8 106.55 153.544C105.942 153.272 105.414 152.88 104.966 152.368C104.534 151.84 104.318 151.152 104.318 150.304C104.318 149.632 104.518 149.016 104.918 148.456C105.318 147.896 105.886 147.456 106.622 147.136C107.358 146.8 108.198 146.632 109.142 146.632C110.598 146.632 111.774 147 112.67 147.736C113.566 148.472 114.046 149.48 114.11 150.76H111.926C111.878 150.072 111.598 149.52 111.086 149.104C110.59 148.688 109.918 148.48 109.07 148.48C108.286 148.48 107.662 148.648 107.198 148.984C106.734 149.32 106.502 149.76 106.502 150.304C106.502 150.736 106.638 151.096 106.91 151.384C107.198 151.656 107.55 151.88 107.966 152.056C108.398 152.216 108.99 152.4 109.742 152.608C110.686 152.864 111.454 153.12 112.046 153.376C112.638 153.616 113.142 153.984 113.558 154.48C113.99 154.976 114.214 155.624 114.23 156.424C114.23 157.144 114.03 157.792 113.63 158.368C113.23 158.944 112.662 159.4 111.926 159.736C111.206 160.056 110.374 160.216 109.43 160.216ZM129.313 152.92C129.313 153.336 129.289 153.776 129.241 154.24H118.729C118.809 155.536 119.249 156.552 120.049 157.288C120.865 158.008 121.849 158.368 123.001 158.368C123.945 158.368 124.729 158.152 125.353 157.72C125.993 157.272 126.441 156.68 126.697 155.944H129.049C128.697 157.208 127.993 158.24 126.937 159.04C125.881 159.824 124.569 160.216 123.001 160.216C121.753 160.216 120.633 159.936 119.641 159.376C118.665 158.816 117.897 158.024 117.337 157C116.777 155.96 116.497 154.76 116.497 153.4C116.497 152.04 116.769 150.848 117.313 149.824C117.857 148.8 118.617 148.016 119.593 147.472C120.585 146.912 121.721 146.632 123.001 146.632C124.249 146.632 125.353 146.904 126.313 147.448C127.273 147.992 128.009 148.744 128.521 149.704C129.049 150.648 129.313 151.72 129.313 152.92ZM127.057 152.464C127.057 151.632 126.873 150.92 126.505 150.328C126.137 149.72 125.633 149.264 124.993 148.96C124.369 148.64 123.673 148.48 122.905 148.48C121.801 148.48 120.857 148.832 120.073 149.536C119.305 150.24 118.865 151.216 118.753 152.464H127.057Z" fill="white"/>
<path d="M53.4793 0C53.7883 0 54.0973 0 54.4191 0C54.4449 0.02575 54.4578 0.064375 54.4835 0.064375C55.5006 0.270375 56.1315 0.914125 56.6079 1.8025C60.2644 8.7035 63.9466 15.5916 67.616 22.4926C68.6846 24.5011 69.7533 26.5096 70.8219 28.5181C70.8991 28.6726 70.9378 28.8657 71.1695 28.9559C71.2983 28.7112 71.427 28.4795 71.5558 28.2477C73.3583 24.8101 75.1608 21.3725 76.9761 17.9349C77.607 16.7375 78.9331 16.1967 80.2335 16.5701C81.109 16.8147 81.6498 17.407 82.0618 18.1924C85.5123 24.7844 88.9628 31.3764 92.4133 37.9555C92.7094 38.5091 92.645 38.5735 93.1471 38.0585C97.4989 33.6939 101.851 29.3421 106.202 24.9775C106.37 24.8101 106.524 24.6427 106.705 24.4882C107.735 23.6256 109.228 23.69 110.194 24.617C110.683 25.0805 110.902 25.6727 111.005 26.3165C111.455 29.0717 111.893 31.827 112.344 34.5822C112.82 37.5306 113.297 40.4919 113.786 43.4402C114.301 46.6075 114.816 49.7747 115.331 52.942C115.846 56.1092 116.361 59.2765 116.876 62.4566C117.455 66.0101 118.035 69.5636 118.614 73.1171C119.155 76.4775 119.695 79.825 120.236 83.1853C120.79 86.6487 121.395 90.0992 121.897 93.5755C121.91 93.6527 121.936 93.73 122 93.7815C122 93.9746 122 94.1548 122 94.348C121.845 94.3351 121.743 94.4381 121.627 94.5154C115.962 97.6697 110.297 100.824 104.645 103.991C97.589 107.918 90.5464 111.858 83.4909 115.785C82.6669 116.248 81.8043 116.583 80.8773 116.763C80.7356 116.789 80.5554 116.75 80.4524 116.905C79.7314 116.905 79.0233 116.905 78.3023 116.905C78.2765 116.815 78.1993 116.802 78.122 116.802C76.9375 116.609 75.8689 116.107 74.826 115.514C65.8908 110.506 56.9426 105.523 48.0074 100.528C44.4539 98.5452 40.9004 96.5625 37.3469 94.5797C36.9735 94.3737 36.9606 94.3737 37.0379 93.936C37.334 92.0305 37.6301 90.1121 37.9263 88.2066C38.3769 85.3226 38.8275 82.4515 39.2781 79.5675C39.703 76.8766 40.115 74.1729 40.5399 71.482C41.0549 68.1731 41.5699 64.8642 42.0978 61.5554C42.5484 58.6456 43.0119 55.7359 43.4625 52.8261C43.9131 49.9679 44.3638 47.0967 44.8015 44.2385C45.2264 41.509 45.6513 38.7924 46.0761 36.0629C46.4881 33.3849 46.913 30.7069 47.325 28.0289C47.8143 24.9131 48.2906 21.8102 48.7799 18.6945C49.2305 15.8105 49.6811 12.9394 50.1318 10.0554C50.5309 7.48037 50.93 4.90538 51.342 2.34325C51.5094 1.27463 52.1403 0.579376 53.1445 0.206001C53.2475 0.141626 53.4149 0.1545 53.4793 0ZM37.2053 93.9489C37.4628 93.8716 37.5658 93.7171 37.6945 93.5884C39.9476 91.3224 42.2008 89.0435 44.4539 86.7904C59.7236 71.4691 75.032 56.1736 90.3146 40.8652C90.9198 40.2601 91.512 39.6292 92.1043 39.0112C92.3618 38.7409 92.3618 38.7022 92.1815 38.3546C91.4734 37.0027 90.7524 35.6509 90.0443 34.299C89.1044 32.5094 88.1516 30.7069 87.2118 28.9172C86.1946 26.9731 85.1646 25.029 84.1475 23.072C83.3621 21.5656 82.5768 20.0592 81.7914 18.5529C81.5339 18.0636 81.2378 17.613 80.7485 17.3169C80.1563 16.9564 79.5511 16.7504 78.843 16.9306C78.1091 17.1109 77.607 17.5486 77.2594 18.2052C76.68 19.3254 76.0749 20.4326 75.4955 21.5656C74.2981 23.8831 73.1136 26.1877 71.9163 28.5052C71.7489 28.8142 71.5686 29.1232 71.4013 29.4065C71.2596 29.4194 71.2339 29.3292 71.1953 29.2777C71.1438 29.2134 71.0923 29.1361 71.015 29.2262C70.809 29.458 70.7318 29.2777 70.6545 29.1232C69.9721 27.8615 69.3026 26.5997 68.6203 25.338C68.0538 24.2694 67.4873 23.1879 66.9208 22.1192C65.9294 20.2266 64.938 18.334 63.9466 16.4542C63.4316 15.4886 62.9424 14.523 62.4403 13.5574C61.1785 11.124 59.8781 8.7035 58.5906 6.283C57.7924 4.76375 57.0199 3.23162 56.1701 1.73812C55.2818 0.167375 53.1703 0.0257484 52.0759 1.51925C51.6896 2.04712 51.5866 2.65225 51.4965 3.27025C51.239 5.00837 50.9558 6.7465 50.6854 8.48462C50.4794 9.81075 50.2734 11.124 50.0545 12.4501C49.9 13.4672 49.7326 14.4844 49.5653 15.4886C49.3593 16.789 49.1661 18.1022 48.9601 19.4026C48.7541 20.6901 48.5481 21.9776 48.3421 23.278C48.0846 24.9646 47.8271 26.6641 47.5696 28.3507C47.2993 30.0889 47.016 31.827 46.7456 33.5522C46.5396 34.8269 46.3594 36.1015 46.1534 37.3761C45.9474 38.6765 45.7414 39.9897 45.5354 41.2901C45.3423 42.5647 45.1491 43.8394 44.9431 45.114C44.6728 46.8135 44.4024 48.5259 44.132 50.2254C43.926 51.5129 43.7458 52.8132 43.5398 54.1007C43.2694 55.826 42.999 57.5384 42.7286 59.2636C42.5226 60.5382 42.3424 61.8129 42.1364 63.0875C41.9046 64.6067 41.66 66.126 41.4154 67.6452C41.2094 68.9842 41.0034 70.3232 40.7845 71.6622C40.5656 73.0785 40.3339 74.4947 40.115 75.8981C39.8833 77.4174 39.6644 78.9495 39.4198 80.4687C39.2138 81.8077 38.9949 83.1467 38.7889 84.4857C38.5829 85.8119 38.364 87.1251 38.158 88.4512C38.0164 89.3396 37.9134 90.2409 37.746 91.1292C37.5786 92.0434 37.5143 92.9832 37.2053 93.9489Z" fill="white"/>
<path d="M37.2053 93.9489C37.5143 92.9833 37.5658 92.0434 37.7332 91.1293C37.9006 90.2409 38.0036 89.3397 38.1452 88.4513C38.3512 87.1252 38.5572 85.8119 38.7761 84.4858C38.9821 83.1468 39.2009 81.8078 39.4069 80.4688C39.6387 78.9495 39.8576 77.4174 40.1022 75.8982C40.3211 74.4819 40.5528 73.0657 40.7717 71.6623C40.9777 70.3233 41.1966 68.9843 41.4026 67.6453C41.6472 66.126 41.8789 64.6068 42.1236 63.0875C42.3167 61.8129 42.5098 60.5383 42.7158 59.2637C42.9862 57.5384 43.2694 55.826 43.5269 54.1008C43.7329 52.8133 43.9132 51.5129 44.1192 50.2254C44.3896 48.5259 44.6599 46.8135 44.9303 45.114C45.1363 43.8394 45.3166 42.5648 45.5226 41.2902C45.7286 39.9898 45.9346 38.6765 46.1406 37.3762C46.3466 36.1015 46.5268 34.8269 46.7328 33.5523C47.0032 31.8142 47.2864 30.0761 47.5568 28.3508C47.8143 26.6642 48.0718 24.9647 48.3293 23.278C48.5353 21.9905 48.7413 20.7031 48.9473 19.4027C49.1533 18.1023 49.3464 16.7891 49.5524 15.4887C49.7069 14.4716 49.8743 13.4544 50.0417 12.4502C50.2477 11.1241 50.4537 9.8108 50.6726 8.48468C50.9429 6.74655 51.2391 5.00843 51.4837 3.27031C51.5738 2.65231 51.6768 2.04718 52.0631 1.5193C53.1574 0.0129304 55.2689 0.167432 56.1573 1.73818C57.0071 3.23168 57.7796 4.7638 58.5778 6.28305C59.8653 8.70355 61.1657 11.1241 62.4274 13.5574C62.9296 14.5231 63.4317 15.4887 63.9338 16.4543C64.9252 18.3469 65.9166 20.2395 66.9079 22.1193C67.4744 23.2008 68.0409 24.2694 68.6074 25.338C69.2769 26.5998 69.9593 27.8616 70.6417 29.1233C70.7189 29.2778 70.7962 29.458 71.0022 29.2263C71.0794 29.1362 71.1309 29.2134 71.1824 29.2778C71.2211 29.3422 71.2468 29.4194 71.3884 29.4065C71.5558 29.1233 71.7361 28.8143 71.9034 28.5053C73.1008 26.1878 74.2853 23.8832 75.4827 21.5657C76.0621 20.4456 76.6543 19.3254 77.2466 18.2053C77.5942 17.5487 78.0963 17.1109 78.8302 16.9307C79.5383 16.7504 80.1563 16.9564 80.7357 17.3169C81.2121 17.6131 81.5211 18.0637 81.7786 18.5529C82.5639 20.0593 83.3493 21.5657 84.1347 23.0721C85.1518 25.0162 86.1818 26.9603 87.1989 28.9173C88.1388 30.7069 89.0787 32.5094 90.0314 34.299C90.7396 35.6509 91.4477 37.0028 92.1687 38.3547C92.3489 38.7023 92.3489 38.728 92.0914 39.0113C91.4992 39.6293 90.9069 40.2602 90.3018 40.8653C75.0321 56.1737 59.7366 71.4692 44.4539 86.7775C42.2008 89.0435 39.9477 91.3095 37.6946 93.5755C37.5787 93.7172 37.4628 93.8845 37.2053 93.9489Z" fill="white" fill-opacity="0.67"/>
</svg>
