<svg width="159" height="162" viewBox="0 0 159 162" fill="none" xmlns="http://www.w3.org/2000/svg">
<path d="M63.0463 140.712C62.6303 140.712 62.2783 140.568 61.9903 140.28C61.7023 139.992 61.5583 139.64 61.5583 139.224C61.5583 138.808 61.7023 138.456 61.9903 138.168C62.2783 137.88 62.6303 137.736 63.0463 137.736C63.4463 137.736 63.7823 137.88 64.0543 138.168C64.3423 138.456 64.4863 138.808 64.4863 139.224C64.4863 139.64 64.3423 139.992 64.0543 140.28C63.7823 140.568 63.4463 140.712 63.0463 140.712ZM64.1023 142.848V156H61.9183V142.848H64.1023ZM75.4086 156.168C73.8566 156.168 72.4406 155.808 71.1606 155.088C69.8806 154.352 68.8646 153.336 68.1126 152.04C67.3766 150.728 67.0086 149.256 67.0086 147.624C67.0086 145.992 67.3766 144.528 68.1126 143.232C68.8646 141.92 69.8806 140.904 71.1606 140.184C72.4406 139.448 73.8566 139.08 75.4086 139.08C76.9766 139.08 78.4006 139.448 79.6806 140.184C80.9606 140.904 81.9686 141.912 82.7046 143.208C83.4406 144.504 83.8086 145.976 83.8086 147.624C83.8086 149.272 83.4406 150.744 82.7046 152.04C81.9686 153.336 80.9606 154.352 79.6806 155.088C78.4006 155.808 76.9766 156.168 75.4086 156.168ZM75.4086 154.272C76.5766 154.272 77.6246 154 78.5526 153.456C79.4966 152.912 80.2326 152.136 80.7606 151.128C81.3046 150.12 81.5766 148.952 81.5766 147.624C81.5766 146.28 81.3046 145.112 80.7606 144.12C80.2326 143.112 79.5046 142.336 78.5766 141.792C77.6486 141.248 76.5926 140.976 75.4086 140.976C74.2246 140.976 73.1686 141.248 72.2406 141.792C71.3126 142.336 70.5766 143.112 70.0326 144.12C69.5046 145.112 69.2406 146.28 69.2406 147.624C69.2406 148.952 69.5046 150.12 70.0326 151.128C70.5766 152.136 71.3126 152.912 72.2406 153.456C73.1846 154 74.2406 154.272 75.4086 154.272ZM91.9958 156.168C90.8918 156.168 89.8998 155.976 89.0198 155.592C88.1558 155.192 87.4758 154.648 86.9798 153.96C86.4838 153.256 86.2278 152.448 86.2118 151.536H88.5398C88.6198 152.32 88.9398 152.984 89.4998 153.528C90.0758 154.056 90.9078 154.32 91.9958 154.32C93.0358 154.32 93.8518 154.064 94.4438 153.552C95.0518 153.024 95.3558 152.352 95.3558 151.536C95.3558 150.896 95.1798 150.376 94.8278 149.976C94.4758 149.576 94.0358 149.272 93.5078 149.064C92.9798 148.856 92.2678 148.632 91.3718 148.392C90.2678 148.104 89.3798 147.816 88.7078 147.528C88.0518 147.24 87.4838 146.792 87.0038 146.184C86.5398 145.56 86.3078 144.728 86.3078 143.688C86.3078 142.776 86.5398 141.968 87.0038 141.264C87.4678 140.56 88.1158 140.016 88.9478 139.632C89.7958 139.248 90.7638 139.056 91.8518 139.056C93.4198 139.056 94.6998 139.448 95.6918 140.232C96.6998 141.016 97.2678 142.056 97.3958 143.352H94.9958C94.9158 142.712 94.5798 142.152 93.9878 141.672C93.3958 141.176 92.6118 140.928 91.6358 140.928C90.7238 140.928 89.9798 141.168 89.4038 141.648C88.8278 142.112 88.5398 142.768 88.5398 143.616C88.5398 144.224 88.7078 144.72 89.0438 145.104C89.3958 145.488 89.8198 145.784 90.3158 145.992C90.8278 146.184 91.5398 146.408 92.4518 146.664C93.5558 146.968 94.4438 147.272 95.1158 147.576C95.7878 147.864 96.3638 148.32 96.8438 148.944C97.3238 149.552 97.5638 150.384 97.5638 151.44C97.5638 152.256 97.3478 153.024 96.9158 153.744C96.4838 154.464 95.8438 155.048 94.9958 155.496C94.1478 155.944 93.1478 156.168 91.9958 156.168Z" fill="white"/>
<path d="M100.682 35.8326C98.3775 35.6524 95.9029 36.2027 92.1132 37.6491C92.4347 37.5273 88.4987 39.0614 87.3978 39.4509C84.9525 40.3032 82.9407 40.7707 80.6853 40.7707C78.4543 40.7707 76.3987 40.3227 74.0313 39.5289C73.2762 39.2708 72.5163 38.9932 71.5713 38.6231C71.1719 38.4672 69.7105 37.8828 69.389 37.7611C66.2325 36.5241 64.4545 36.0566 62.9785 36.0956C57.3669 36.1686 52.0524 39.4071 48.969 44.7737C42.6754 55.7017 46.1583 75.4491 55.36 88.7537C60.2604 95.7858 62.9396 98.2986 64.021 98.2645C65.1024 98.2159 65.8964 97.987 67.8351 97.1688L68.6486 96.8231C73.5442 94.7339 76.9783 93.8135 82.1467 93.8135C87.1202 93.8135 90.4423 94.7193 95.143 96.7451L95.9614 97.0958C97.9001 97.9237 98.6016 98.1087 99.8194 98.0795C101.563 98.0551 103.711 96.0487 108.48 89.0507C109.786 87.1466 110.94 85.1402 111.939 83.1095C111.283 82.569 110.646 82.0054 110.029 81.4196C103.75 75.4394 99.8681 67.3749 99.7609 57.4111C99.656 50.0389 102.08 42.8531 106.629 37.0501C104.72 36.3454 102.714 35.9349 100.682 35.8326ZM101.437 26.1221C104.885 26.3558 114.764 27.4077 121.194 36.8163C120.668 37.1085 109.386 43.6536 109.503 57.3283C109.679 73.6911 123.825 79.1259 124 79.1843C123.883 79.5934 121.72 86.9567 116.518 94.5537C112.017 101.157 107.341 107.702 99.9753 107.819C92.7269 107.995 90.3887 103.553 82.1467 103.553C73.8462 103.553 71.2742 107.702 64.435 107.995C57.3036 108.228 51.9258 100.865 47.3663 94.3199C38.0721 80.8791 30.9991 56.4517 40.5272 39.9136C45.262 31.6737 53.6794 26.4727 62.8567 26.3558C69.8128 26.1805 76.4182 31.0309 80.6853 31.0309C84.894 31.0309 92.4346 25.4208 101.437 26.1221ZM95.8835 17.2394C92.0839 21.7976 85.8878 25.3624 79.867 24.8949C79.0486 18.7004 82.0882 12.2137 85.5955 8.18141C89.5119 3.62319 96.0588 0.233755 101.495 0C102.197 6.31137 99.683 12.6812 95.8835 17.2394Z" fill="white"/>
</svg>
